<svg id="visual" viewBox="0 0 960 200" width="960" height="200" xmlns="http://www.w3.org/2000/svg" xmlns:xlink="http://www.w3.org/1999/xlink" version="1.1"><path d="M0 63L16 57.3C32 51.7 64 40.3 96 44.2C128 48 160 67 192 72C224 77 256 68 288 64.3C320 60.7 352 62.3 384 56C416 49.7 448 35.3 480 28.2C512 21 544 21 576 30.2C608 39.3 640 57.7 672 60.7C704 63.7 736 51.3 768 49.8C800 48.3 832 57.7 864 56.7C896 55.7 928 44.3 944 38.7L960 33L960 201L944 201C928 201 896 201 864 201C832 201 800 201 768 201C736 201 704 201 672 201C640 201 608 201 576 201C544 201 512 201 480 201C448 201 416 201 384 201C352 201 320 201 288 201C256 201 224 201 192 201C160 201 128 201 96 201C64 201 32 201 16 201L0 201Z" fill="#f7770f"></path><path d="M0 51L16 56C32 61 64 71 96 78.8C128 86.7 160 92.3 192 93.8C224 95.3 256 92.7 288 90.3C320 88 352 86 384 85.7C416 85.3 448 86.7 480 85.2C512 83.7 544 79.3 576 83.7C608 88 640 101 672 99C704 97 736 80 768 69C800 58 832 53 864 58.5C896 64 928 80 944 88L960 96L960 201L944 201C928 201 896 201 864 201C832 201 800 201 768 201C736 201 704 201 672 201C640 201 608 201 576 201C544 201 512 201 480 201C448 201 416 201 384 201C352 201 320 201 288 201C256 201 224 201 192 201C160 201 128 201 96 201C64 201 32 201 16 201L0 201Z" fill="#f98314"></path><path d="M0 139L16 132.8C32 126.7 64 114.3 96 104.5C128 94.7 160 87.3 192 89.5C224 91.7 256 103.3 288 106.5C320 109.7 352 104.3 384 102.3C416 100.3 448 101.7 480 98.7C512 95.7 544 88.3 576 88.8C608 89.3 640 97.7 672 104.3C704 111 736 116 768 111.7C800 107.3 832 93.7 864 88C896 82.3 928 84.7 944 85.8L960 87L960 201L944 201C928 201 896 201 864 201C832 201 800 201 768 201C736 201 704 201 672 201C640 201 608 201 576 201C544 201 512 201 480 201C448 201 416 201 384 201C352 201 320 201 288 201C256 201 224 201 192 201C160 201 128 201 96 201C64 201 32 201 16 201L0 201Z" fill="#fb8e1b"></path><path d="M0 154L16 151.2C32 148.3 64 142.7 96 139.7C128 136.7 160 136.3 192 132C224 127.7 256 119.3 288 121.3C320 123.3 352 135.7 384 144.2C416 152.7 448 157.3 480 159.2C512 161 544 160 576 159.2C608 158.3 640 157.7 672 152.5C704 147.3 736 137.7 768 135.3C800 133 832 138 864 143.5C896 149 928 155 944 158L960 161L960 201L944 201C928 201 896 201 864 201C832 201 800 201 768 201C736 201 704 201 672 201C640 201 608 201 576 201C544 201 512 201 480 201C448 201 416 201 384 201C352 201 320 201 288 201C256 201 224 201 192 201C160 201 128 201 96 201C64 201 32 201 16 201L0 201Z" fill="#fd9922"></path><path d="M0 165L16 166.7C32 168.3 64 171.7 96 171.5C128 171.3 160 167.7 192 166.3C224 165 256 166 288 164.7C320 163.3 352 159.7 384 156.5C416 153.3 448 150.7 480 152.2C512 153.7 544 159.3 576 159.2C608 159 640 153 672 154.8C704 156.7 736 166.3 768 165.7C800 165 832 154 864 148.5C896 143 928 143 944 143L960 143L960 201L944 201C928 201 896 201 864 201C832 201 800 201 768 201C736 201 704 201 672 201C640 201 608 201 576 201C544 201 512 201 480 201C448 201 416 201 384 201C352 201 320 201 288 201C256 201 224 201 192 201C160 201 128 201 96 201C64 201 32 201 16 201L0 201Z" fill="#ffa42a"></path></svg>